# AST/ASF file generated using VICON BodyLanguage
# -----------------------------------------------
:version 1.10
:name VICON
:units
  mass 1.0
  length 0.45
  angle deg
:documentation
   .ast/.asf automatically generated from VICON data using
   VICON BodyBuilder and BodyLanguage model FoxedUp or BRILLIANT.MOD
:root
   order TX TY TZ RX RY RZ
   axis XYZ
   position 0 0 0  
   orientation 0 0 0 
:bonedata
  begin
     id 1 
     name lhipjoint
     direction 0.547975 -0.797114 0.253638 
     length 2.36201 
     axis 0 0 0  XYZ
  end
  begin
     id 2 
     name lfemur
     direction 0.34202 -0.939693 0  
     length 7.69075  
     axis 0 0 20  XYZ
    dof rx ry rz
    limits (-160.0 20.0)
           (-70.0 70.0)
           (-60.0 70.0)
  end
  begin
     id 3 
     name ltibia
     direction 0.34202 -0.939693 0   
     length 7.91399   
     axis 0 0 20   XYZ
    dof rx
    limits (-10.0 170.0)
  end
  begin
     id 4 
     name lfoot
     direction 0.0705293 -0.193778 0.978507   
     length 2.13618   
     axis -90 7.62852e-016 20   XYZ
    dof rx rz
    limits (-45.0 90.0)
           (-70.0 20.0)
  end
  begin
     id 5 
     name ltoes
     direction 1.53592e-011 -4.21925e-011 1   
     length 1.07518   
     axis -90 7.62852e-016 20   XYZ
    dof rx
    limits (-90.0 20.0)
  end
  begin
     id 6 
     name rhipjoint
     direction -0.57 -0.782963 0.249136   
     length 2.4047  
     axis 0 0 0  XYZ 
  end
  begin
     id 7 
     name rfemur
     direction -0.34202 -0.939693 0   
     length 7.51486   
     axis 0 0 -20   XYZ
    dof rx ry rz
    limits (-160.0 20.0)
           (-70.0 70.0)
           (-70.0 60.0)
  end
  begin
     id 8 
     name rtibia
     direction -0.34202 -0.939693 0   
     length 8.08317   
     axis 0 0 -20   XYZ
    dof rx
    limits (-10.0 170.0)
 end
 begin
     id 9 
     name rfoot
     direction -0.104954 -0.281256 0.953876   
     length 2.30343  
     axis -90 -7.62852e-016 -20   XYZ
    dof rx rz
    limits (-45.0 90.0)
           (-20.0 70.0)
  end
  begin
     id 10 
     name rtoes
     direction -1.53556e-011 -4.21922e-011 1   
     length 1.14803   
     axis -90 -7.62852e-016 -20   XYZ
    dof rx
    limits (-90.0 20.0)
  end
  begin
     id 11 
     name lowerback
     direction -0.0152855 0.99353 -0.11254   
     length 2.05311   
     axis 0 0 0   XYZ
    dof rx ry rz
    limits (-20.0 45.0)
           (-30.0 30.0)
           (-30.0 30.0)
  end
  begin
     id 12 
     name upperback
     direction -0.00157509 0.999443 -0.033332   
     length 2.06353   
     axis 0 0 0   XYZ
    dof rx ry rz
    limits (-20.0 45.0)
           (-30.0 30.0)
           (-30.0 30.0)
  end
  begin
     id 13 
     name thorax
     direction 0.00577788 0.999804 0.0189484   
     length 2.08472   
     axis 0 0 0   XYZ
    dof rx ry rz
    limits (-20.0 45.0)
           (-30.0 30.0)
           (-30.0 30.0)
  end
  begin
     id 14 
     name lowerneck
     direction -1.09301e-005 0.994719 0.10264   
     length 1.76249   
     axis 0 0 0   XYZ
    dof rx ry rz
    limits (-20.0 45.0)
           (-30.0 30.0)
           (-30.0 30.0)
  end
  begin
     id 15 
     name upperneck
     direction 0.0495018 0.988526 -0.142706   
     length 1.77897   
     axis 0 0 0   XYZ
    dof rx ry rz
    limits (-20.0 45.0)
           (-30.0 30.0)
           (-30.0 30.0)
  end
  begin
     id 16
     name head
     direction 0.0142736 0.998114 -0.0597101  
     length 1.78934  
     axis 0 0 0   XYZ
    dof rx ry rz
    limits (-20.0 45.0)
           (-30.0 30.0)
           (-30.0 30.0)
  end
  begin
     id 17 
     name lclavicle
     direction 0.918111 0.396107 -0.0130883  
     length 3.37276  
     axis 0 0 0   XYZ
    dof ry rz
    limits (-20.0 10.0)
           (0.0 20.0)
  end
  begin
     id 18 
     name lhumerus
     direction 1 -4.48975e-011 -3.26108e-027   
     length 5.34298   
     axis 180 -30 -90   XYZ
    dof rx ry rz
    limits (-60.0 90.0)
           (-90.0 90.0)
           (-90.0 90.0)
  end
  begin
     id 19
     name lradius
     direction 1 -4.48964e-011 -8.84413e-028   
     length 3.67262   
     axis 180 -30 -90   XYZ
    dof rx
    limits (-10.0 170.0)
  end
  begin
     id 20
     name lwrist
     direction 1 -4.48991e-011 -1.24264e-027   
     length 1.83631   
     axis -2.17013e-015 90 90   XYZ
    dof ry
    limits (-180.0 0.0)
 end
  begin
     id 21 
     name lhand
     direction 1 -4.48855e-011 -2.48528e-027   
     length 0.599298   
     axis 1.58582e-015 90 90   XYZ
    dof rx rz
    limits (-90.0 90.0)
           (-45.0 45.0)
  end
  begin
     id 22 
     name lfingers
     direction 1 -4.48811e-011 -4.97056e-027   
     length 0.48317   
     axis 3.17164e-015 90 90   XYZ
    dof rx
    limits (0.0 90.0)
  end
  begin
     id 23
     name lthumb
     direction 0.707107 -6.34882e-011 0.707107   
     length 0.693738   
     axis -90 45 2.85299e-015   XYZ
    dof rx rz
    limits (-45.0 45.0)
           (-45.0 45.0)
  end
  begin
     id 24 
     name rclavicle
     direction -0.920511 0.384752 -0.0680135   
     length 3.43787  
     axis 0 0 0   XYZ 
    dof ry rz
    limits (-10.0 20.0)
           (-20.0 0.0)
  end
  begin
     id 25 
     name rhumerus
     direction -0.999976 -0.00330524 0.00603274  
     length 5.5498   
     axis 180 30 90   XYZ
    dof rx ry rz
    limits (-90.0 60.0)
           (-90.0 90.0)
           (-90.0 90.0)
  end
  begin
     id 26 
     name rradius
     direction -1 -4.48967e-011 8.62438e-027   
     length 3.69401   
     axis 180 30 90   XYZ
    dof rx
    limits (-10.0 170.0)
  end
  begin
     id 27 
     name rwrist
     direction -1 -4.4897e-011 9.54866e-027   
     length 1.84701   
     axis -7.69462e-015 -90 -90   XYZ
    dof ry
    limits (-180.0 0.0)
  end
  begin
     id 28
     name rhand
     direction -1 -4.48982e-011 1.90973e-026   
     length 0.638113   
     axis -1.21857e-014 -90 -90   XYZ
    dof rx rz
    limits (-90.0 90.0)
           (-45.0 45.0)
  end
  begin
     id 29
     name rfingers
     direction -1 -4.48936e-011 3.81946e-026   
     length 0.514463   
     axis -2.43714e-014 -90 -90   XYZ
    dof rx
    limits (0.0 90.0)
  end
  begin
     id 30
     name rthumb
     direction -0.707107 -6.34942e-011 0.707107   
     length 0.738669   
     axis -90 -45 -2.85299e-015   XYZ
    dof rx rz
    limits (-45.0 45.0)
           (-45.0 45.0)
  end
:hierarchy
  begin
    root lhipjoint rhipjoint lowerback
    lhipjoint lfemur
    lfemur ltibia
    ltibia lfoot
    lfoot ltoes
    rhipjoint rfemur
    rfemur rtibia
    rtibia rfoot
    rfoot rtoes
    lowerback upperback
    upperback thorax
    thorax lowerneck lclavicle rclavicle
    lowerneck upperneck
    upperneck head
    lclavicle lhumerus
    lhumerus lradius
    lradius lwrist
    lwrist lhand lthumb
    lhand lfingers
    rclavicle rhumerus
    rhumerus rradius
    rradius rwrist
    rwrist rhand rthumb
    rhand rfingers
  end

#!OML:ASF F:\twosubjects\two\Thursday\Session 1\Rory.ASF
:FULLY-SPECIFIED
:DEGREES
177
root 9.20917 15.9087 9.06811 31.5636 -89.0553 -35.2319
lowerback 9.27509 -2.35934 -1.4595
upperback -1.54986 -3.39316 -1.00885
thorax -6.81178 -1.62941 0.26976
lowerneck -4.05535 -6.08562 -5.53513
upperneck 12.0741 -8.99295 8.06912
head 4.89631 -4.31713 2.86441
rclavicle 2.52705e-014 -7.15625e-015
rhumerus 58.3031 -54.4575 -21.9218
rradius 76.4726
rwrist -0.527288
rhand -27.5118 36.0102
rfingers 7.12502
rthumb -0.914446 6.0324
lclavicle 2.52705e-014 -7.15625e-015
lhumerus 50.6588 53.7349 17.0954
lradius 71.8586
lwrist 21.4787
lhand -17.2571 33.0417
lfingers 7.12502
lthumb 8.98722 62.8303
rfemur -11.2045 15.0789 -3.1522
rtibia 46.6034
rfoot -25.9392 -9.73603
rtoes -48.8516
lfemur -5.34495 -10.5894 10.3345
ltibia 41.5032
lfoot -22.8192 -0.360265
ltoes -39.8285
178
root 9.2419 15.7654 9.16422 57.5671 -88.6987 -61.6383
lowerback 9.95007 -2.36443 -0.44519
upperback -1.32976 -3.26879 -0.800418
thorax -7.00848 -1.60064 -0.0730856
lowerneck -4.35466 -6.08004 -5.29331
upperneck 11.6367 -8.89142 7.71996
head 4.78023 -4.26533 2.72033
rclavicle 4.89507e-015 5.1684e-015
rhumerus 60.9091 -54.8849 -23.0123
rradius 76.7786
rwrist -1.51192
rhand -27.9257 36.1232
rfingers 7.12502
rthumb -1.31417 6.14747
lclavicle 4.89507e-015 5.1684e-015
lhumerus 53.3077 54.3316 18.8798
lradius 72.8184
lwrist 19.8711
lhand -18.058 32.9091
lfingers 7.12502
lthumb 8.21439 62.7294
rfemur -11.5728 14.9248 -2.84334
rtibia 47.8552
rfoot -26.5497 -10.5058
rtoes -49.4599
lfemur -5.93585 -9.64838 10.8347
ltibia 43.6476
lfoot -24.7416 0.344403
ltoes -39.5161
179
root 9.27691 15.6536 9.2663 64.1105 -88.8655 -68.4385
lowerback 10.4513 -2.35711 -0.207201
upperback -1.1422 -3.2322 -0.805269
thorax -7.10819 -1.59125 -0.199845
lowerneck -4.80078 -6.10113 -5.06863
upperneck 11.4655 -8.87263 7.53232
head 4.78415 -4.24282 2.6157
rclavicle -8.64713e-015 -7.95139e-016
rhumerus 63.6281 -55.1172 -24.7648
rradius 77.1213
rwrist -2.44316
rhand -28.2363 36.1073
rfingers 7.12502
rthumb -1.61411 6.13369
lclavicle -8.64713e-015 -7.95139e-016
lhumerus 55.5842 54.8847 20.2515
lradius 73.457
lwrist 18.4167
lhand -18.6877 32.1907
lfingers 7.12502
lthumb 7.60655 62.0339
rfemur -12.0075 15.164 -3.35348
rtibia 48.7505
rfoot -27.0533 -10.8226
rtoes -49.3316
lfemur -6.46233 -8.5745 10.5053
ltibia 45.401
lfoot -26.4425 0.992546
ltoes -38.446
180
root 9.30631 15.5708 9.36512 68.7155 -89.6605 -73.2532
lowerback 10.9979 -2.26595 -0.95215
upperback -1.12006 -3.21781 -0.826591
thorax -7.35603 -1.55288 0.215862
lowerneck -4.85886 -6.03945 -4.93308
upperneck 11.1059 -8.76104 7.51049
head 4.66991 -4.18418 2.59738
rclavicle 2.58047e-014 7.15625e-015
rhumerus 66.1514 -54.9081 -26.7431
rradius 77.7008
rwrist -3.57387
rhand -27.9713 35.8735
rfingers 7.12502
rthumb -1.35823 5.89807
lclavicle 2.58047e-014 7.15625e-015
lhumerus 56.7698 55.3422 20.8191
lradius 73.9752
lwrist 17.5027
lhand -19.1319 31.5112
lfingers 7.12502
lthumb 7.17788 61.3694
rfemur -12.3651 16.1231 -4.56187
rtibia 49.2464
rfoot -27.2676 -11.1663
rtoes -49.0447
lfemur -6.73906 -7.39534 9.41129
ltibia 46.705
lfoot -27.884 2.15253
ltoes -38.6623
181
root 9.32366 15.5155 9.4598 54.9317 -90.3654 -59.8123
lowerback 11.6432 -2.18451 -2.11032
upperback -1.1536 -3.25773 -0.476557
thorax -7.67466 -1.51095 1.27039
lowerneck -4.50018 -5.88783 -5.14547
upperneck 10.4579 -8.47873 7.42445
head 4.39876 -4.07028 2.64261
rclavicle 2.08662e-014 6.36111e-015
rhumerus 68.7368 -54.378 -28.3723
rradius 77.8889
rwrist -5.0138
rhand -27.4711 35.6659
rfingers 7.12502
rthumb -0.87507 5.68799
lclavicle 2.08662e-014 6.36111e-015
lhumerus 56.6761 55.7035 20.6166
lradius 74.3406
lwrist 16.6697
lhand -19.5312 31.7696
lfingers 7.12502
lthumb 6.79234 61.6407
rfemur -12.2684 17.2568 -5.57238
rtibia 49.3287
rfoot -27.0793 -11.7827
rtoes -49.7388
lfemur -6.63245 -6.63217 8.36623
ltibia 47.5883
lfoot -29.0218 3.21758
ltoes -39.1072
182
root 9.33323 15.4854 9.56112 65.9676 -90.7884 -71.0362
lowerback 11.6842 -2.27697 -2.65962
upperback -1.00722 -3.4454 -0.311846
thorax -7.49266 -1.58101 1.78255
lowerneck -4.07821 -5.6118 -5.21553
upperneck 9.61888 -8.05044 7.48683
head 4.0507 -3.8746 2.72202
rclavicle -2.56246e-014 6.95746e-016
rhumerus 70.9802 -53.9973 -29.9861
rradius 77.7248
rwrist -6.49293
rhand -26.8957 34.9841
rfingers 7.12502
rthumb -0.319362 5.00464
lclavicle -2.56246e-014 6.95746e-016
lhumerus 56.5668 56.1039 20.1373
lradius 74.5138
lwrist 16.1678
lhand -19.579 32.1543
lfingers 7.12502
lthumb 6.74628 62.0269
rfemur -11.9747 18.0256 -6.3479
rtibia 49.0285
rfoot -26.7405 -12.4446
rtoes -50.843
lfemur -6.59772 -6.32882 7.56215
ltibia 48.129
lfoot -30.0279 3.31953
ltoes -38.3221
183
root 9.34023 15.4813 9.66985 70.3344 -91.2726 -75.5333
lowerback 11.3217 -2.36679 -2.46468
upperback -0.685569 -3.55532 -0.747418
thorax -6.97797 -1.66705 1.20603
lowerneck -3.65616 -5.37563 -4.83074
upperneck 8.6544 -7.757 7.99401
head 3.67491 -3.71814 2.85404
rclavicle 7.39852e-015 -5.96354e-016
rhumerus 71.6295 -53.9583 -31.1741
rradius 77.9117
rwrist -7.8966
rhand -26.5775 33.519
rfingers 7.12502
rthumb -0.0120347 3.53924
lclavicle 7.39852e-015 -5.96354e-016
lhumerus 57.4574 56.3525 20.152
lradius 74.591
lwrist 16.416
lhand -19.4615 32.098
lfingers 7.12502
lthumb 6.85968 61.9668
rfemur -11.571 18.7499 -7.19938
rtibia 48.3924
rfoot -26.4612 -12.5509
rtoes -50.7466
lfemur -6.51608 -6.13335 6.70753
ltibia 48.4018
lfoot -30.7742 3.05871
ltoes -38.1714
184
root 9.34206 15.513 9.77857 67.4439 -91.6788 -72.8281
lowerback 11.1173 -2.32446 -2.38477
upperback -0.475903 -3.4997 -1.02407
thorax -6.66355 -1.65729 0.846165
lowerneck -3.42629 -5.46843 -4.15165
upperneck 7.85555 -7.84802 7.63277
head 3.73415 -3.7934 2.93893
rclavicle 4.34779e-014 1.82882e-014
rhumerus 71.6448 -53.8754 -31.5925
rradius 77.6781
rwrist -9.04454
rhand -26.2759 32.4868
rfingers 7.12502
rthumb 0.279254 2.5072
lclavicle 4.34779e-014 1.82882e-014
lhumerus 57.9708 56.179 20.3265
lradius 74.5758
lwrist 16.8698
lhand -19.614 32.2183
lfingers 7.12502
lthumb 6.71249 62.092
rfemur -11.0604 19.5329 -7.89256
rtibia 47.5214
rfoot -25.8721 -11.7877
rtoes -49.6678
lfemur -6.22024 -6.04761 5.91966
ltibia 48.4405
lfoot -30.9454 3.81398
ltoes -40.8534
185
root 9.33869 15.5733 9.89322 61.8453 -91.5594 -67.3043
lowerback 10.9107 -2.30958 -2.11698
upperback -0.418671 -3.41617 -0.750627
thorax -6.48606 -1.62322 0.958002
lowerneck -3.34813 -5.75998 -3.72981
upperneck 7.6378 -8.18187 6.94097
head 3.59881 -3.96977 2.6057
rclavicle 1.67631e-014 -5.76476e-015
rhumerus 71.8393 -53.5484 -31.6874
rradius 76.92
rwrist -9.81193
rhand -25.5912 32.0175
rfingers 7.12502
rthumb 0.940594 2.03983
lclavicle 1.67631e-014 -5.76476e-015
lhumerus 57.6512 55.9159 20.5766
lradius 74.2307
lwrist 17.1163
lhand -19.4359 31.9936
lfingers 7.12502
lthumb 6.88439 61.8617
rfemur -10.4723 20.2426 -7.93967
rtibia 46.4839
rfoot -25.0761 -10.6911
rtoes -47.7073
lfemur -6.01811 -6.12709 5.69297
ltibia 48.261
lfoot -30.7931 4.10354
ltoes -42.2095
186
root 9.33773 15.6505 10.0101 53.7427 -91.2927 -59.111
lowerback 10.5297 -2.37198 -1.58359
upperback -0.424396 -3.39349 -0.365218
thorax -6.28369 -1.62516 1.04106
lowerneck -3.97728 -5.55556 -4.97028
upperneck 9.13617 -8.03531 8.11381
head 3.90248 -3.84216 2.88236
rclavicle -3.46543e-014 -5.40601e-015
rhumerus 71.6322 -53.0432 -31.7222
rradius 76.3654
rwrist -10.5071
rhand -24.9664 31.1308
rfingers 7.12502
rthumb 1.54402 1.15662
lclavicle -3.46543e-014 -5.40601e-015
lhumerus 56.2498 55.8745 20.0141
lradius 73.8356
lwrist 17.3581
lhand -19.0091 31.5776
lfingers 7.12502
lthumb 7.29632 61.4318
rfemur -9.9825 20.9328 -7.75605
rtibia 45.33
rfoot -23.97 -10.0638
rtoes -45.8426
lfemur -5.93291 -5.96246 5.67758
ltibia 47.8444
lfoot -30.5564 3.11391
ltoes -40.9151
